# xmcd CD database file
# Copyright (C) 1993-1998 Ti Kan
# 
# Track frame offsets:
#     182
#     12092
#     30950
#     46790
#     63675
#     73512
#     85962
#     98532
#     113102
#     124557
#     142335
#     153505
#     167485
#     181117
#     196107
#     206795
#     221427
#     232695
#     250257
#     266412
#     282342
#     296385
#     314492
# 
# Disc length: 4321 seconds
# 
# Revision: 1
# Processed by: cddbd v1.4b41PL1 Copyright (c) Steve Scherf et al.
# Submitted via: DiscPlay 4.0.4
# 
DISCID=3b10df17
DTITLE=Linda Ronstadt - Required Ronstadt
DYEAR=1900
DGENRE=
TTITLE0=Different Drum
TTITLE1=Love Has No Pride
TTITLE2=Desperado
TTITLE3=You're No Good
TTITLE4=When Will I Be Loved
TTITLE5=Heat Wave
TTITLE6=Love is a Rose
TTITLE7=Tracks of My Tears
TTITLE8=That'll be the Day
TTITLE9=Blue Bayou
TTITLE10=It's So Easy
TTITLE11=Tumbling Dice
TTITLE12=Back in the USA
TTITLE13=Ooh Baby Baby
TTITLE14=How Do I Make You
TTITLE15=Hurt So Bad
TTITLE16=Get Closer
TTITLE17=What's New
TTITLE18=Don't Know Much
TTITLE19=All My Life
TTITLE20=Oh No, Not My Baby
TTITLE21=The Waiting
TTITLE22=Dedicated to the One I Love
EXTD=
EXTT0=
EXTT1=
EXTT2=
EXTT3=
EXTT4=
EXTT5=
EXTT6=
EXTT7=
EXTT8=
EXTT9=
EXTT10=
EXTT11=
EXTT12=
EXTT13=
EXTT14=
EXTT15=
EXTT16=
EXTT17=
EXTT18=
EXTT19=
EXTT20=
EXTT21=
EXTT22=
PLAYORDER=
